<?xml version="1.0" encoding="UTF-8"?>
<svg width="24px" height="22px" viewBox="0 0 24 22" version="1.1" xmlns="http://www.w3.org/2000/svg" xmlns:xlink="http://www.w3.org/1999/xlink">
    <!-- Generator: Sketch 52.2 (67145) - http://www.bohemiancoding.com/sketch -->
    <title>download</title>
    <desc>Created with Sketch.</desc>
    <g id="Page-1" stroke="none" stroke-width="1" fill="none" fill-rule="evenodd">
        <g id="Galaxy-S8" transform="translate(-247.000000, -26.000000)" fill="#FFFFFF" fill-rule="nonzero" stroke="#FFFFFF" stroke-width="0.3">
            <g id="download" transform="translate(248.000000, 27.000000)">
                <path d="M21.3334746,9.75514874 C20.9838983,9.75514874 20.7042373,10.0297483 20.7042373,10.3729977 L20.7042373,15.993135 C20.7042373,17.5217391 19.4364407,18.7620137 17.884322,18.7620137 L4.07838983,18.7620137 C2.52161017,18.7620137 1.25847458,17.5171625 1.25847458,15.993135 L1.25847458,10.2814645 C1.25847458,9.9382151 0.978813559,9.66361556 0.629237288,9.66361556 C0.279661017,9.66361556 0,9.9382151 0,10.2814645 L0,15.993135 C0,18.2036613 1.83177966,19.9977117 4.07838983,19.9977117 L17.884322,19.9977117 C20.1355932,19.9977117 21.9627119,18.1990847 21.9627119,15.993135 L21.9627119,10.3729977 C21.9627119,10.0343249 21.6830508,9.75514874 21.3334746,9.75514874 Z" id="Path"></path>
                <path d="M10.5385593,15.0915332 C10.6597458,15.2105263 10.8228814,15.2745995 10.9813559,15.2745995 C11.1398305,15.2745995 11.3029661,15.215103 11.4241525,15.0915332 L15.4233051,11.1647597 C15.670339,10.9221968 15.670339,10.5331808 15.4233051,10.2906178 C15.1762712,10.0480549 14.7800847,10.0480549 14.5330508,10.2906178 L11.6105932,13.1647597 L11.6105932,0.629290618 C11.6105932,0.28604119 11.3309322,0.0114416476 10.9813559,0.0114416476 C10.6317797,0.0114416476 10.3521186,0.28604119 10.3521186,0.629290618 L10.3521186,13.1647597 L7.425,10.2906178 C7.1779661,10.0480549 6.78177966,10.0480549 6.53474576,10.2906178 C6.28771186,10.5331808 6.28771186,10.9221968 6.53474576,11.1647597 L10.5385593,15.0915332 Z" id="Path"></path>
            </g>
        </g>
    </g>
</svg>