<?xml version="1.0" encoding="UTF-8"?>
<svg width="27px" height="20px" viewBox="0 0 27 20" version="1.1" xmlns="http://www.w3.org/2000/svg" xmlns:xlink="http://www.w3.org/1999/xlink">
    <!-- Generator: Sketch 52.2 (67145) - http://www.bohemiancoding.com/sketch -->
    <title>undo</title>
    <desc>Created with Sketch.</desc>
    <g id="Page-1" stroke="none" stroke-width="1" fill="none" fill-rule="evenodd">
        <g id="Galaxy-S8" transform="translate(-23.000000, -697.000000)" fill="#FFFFFF" fill-rule="nonzero">
            <g id="Group-12" transform="translate(0.000000, 674.000000)">
                <g id="Group-4">
                    <g id="undo" transform="translate(23.000000, 23.000000)">
                        <path d="M4.7099707,0.061344086 C4.41397266,-0.0637634409 4.07351953,0.00612903226 3.84755273,0.23844086 L0.230554688,3.95844086 C-0.0768339844,4.27456989 -0.0768339844,4.78569892 0.230554688,5.10182796 L3.84755273,8.82182796 C4.07409961,9.05483871 4.41481641,9.12376344 4.7099707,8.99892473 C5.00591602,8.87370968 5.1990293,8.57806452 5.1990293,8.25010753 L5.1990293,0.81016129 C5.1990293,0.482150538 5.00596875,0.18655914 4.7099707,0.061344086 Z" id="Path"></path>
                        <path d="M19.0634766,3.74268817 L6.78106055,3.74268817 L6.78106055,5.36301075 L19.0634766,5.36301075 C22.5673594,5.36301075 25.4179688,8.28263441 25.4179688,11.8713441 C25.4179688,15.4600538 22.5673594,18.3796774 19.0634766,18.3796774 L0.791015625,18.3796774 C0.354164062,18.3796774 0,18.7424194 0,19.1898387 C0,19.6372581 0.354164062,20 0.791015625,20 L19.0634766,20 C23.4396914,20 27,16.3534946 27,11.8713441 C27,7.38919355 23.4396914,3.74268817 19.0634766,3.74268817 Z" id="Path"></path>
                    </g>
                </g>
            </g>
        </g>
    </g>
</svg>